<?xml version="1.0" encoding="UTF-8"?>
<svg xmlns="http://www.w3.org/2000/svg" xmlns:xlink="http://www.w3.org/1999/xlink" width="375pt" height="374.999991pt" viewBox="0 0 375 374.999991" version="1.2">
<defs>
<clipPath id="clip1">
  <path d="M 69.5625 67 L 288 67 L 288 308 L 69.5625 308 Z M 69.5625 67 "/>
</clipPath>
</defs>
<g id="surface1">
<g clip-path="url(#clip1)" clip-rule="nonzero">
<path style=" stroke:none;fill-rule:nonzero;fill:rgb(0%,29.019165%,67.83905%);fill-opacity:1;" d="M 108.8125 307.824219 C 107.546875 307.824219 106.28125 307.191406 105.648438 305.921875 C 103.75 302.746094 69.5625 251.953125 69.5625 233.539062 C 69.5625 223.0625 73.679688 213.222656 80.960938 205.601562 C 88.554688 198.300781 98.367188 194.171875 108.8125 194.171875 C 119.257812 194.171875 129.070312 198.300781 136.667969 205.601562 C 144.265625 213.222656 148.0625 223.0625 148.0625 233.539062 C 148.0625 252.269531 113.5625 303.0625 111.980469 305.921875 C 111.347656 307.191406 110.082031 307.824219 108.8125 307.824219 Z M 108.8125 201.792969 C 100.269531 201.792969 92.355469 204.96875 86.339844 211 C 80.324219 217.03125 77.160156 224.96875 77.160156 233.539062 C 77.160156 245.601562 107.863281 294.808594 108.8125 296.714844 C 110.082031 294.808594 140.46875 245.601562 140.46875 233.539062 C 140.46875 224.96875 137.300781 217.03125 131.289062 211 C 125.273438 204.96875 117.359375 201.792969 108.8125 201.792969 Z M 108.8125 253.539062 C 103.433594 253.539062 98.683594 251.632812 94.886719 247.824219 C 91.089844 244.015625 89.1875 239.253906 89.1875 233.855469 C 89.1875 228.460938 91.089844 223.699219 94.886719 219.886719 C 98.683594 216.078125 103.433594 214.171875 108.8125 214.171875 C 114.195312 214.171875 118.941406 216.078125 122.742188 219.886719 C 126.539062 223.699219 128.4375 228.460938 128.4375 233.855469 C 128.4375 239.253906 126.539062 244.015625 122.742188 247.824219 C 118.941406 251.316406 113.878906 253.539062 108.8125 253.539062 Z M 108.8125 221.476562 C 105.648438 221.476562 102.484375 222.746094 100.269531 224.96875 C 98.050781 227.191406 96.785156 230.363281 96.785156 233.539062 C 96.785156 236.714844 98.050781 239.886719 100.269531 242.109375 C 102.484375 244.332031 105.648438 245.601562 108.8125 245.601562 C 111.980469 245.601562 115.144531 244.332031 117.359375 242.109375 C 119.574219 239.886719 120.84375 236.714844 120.84375 233.539062 C 120.84375 230.363281 119.574219 227.191406 117.359375 224.96875 C 115.144531 222.746094 111.980469 221.476562 108.8125 221.476562 Z M 258.535156 151.949219 C 257.269531 151.949219 256 151.316406 255.367188 150.046875 C 254.101562 147.824219 229.097656 106.871094 229.097656 97.027344 C 229.097656 89.09375 232.261719 81.789062 237.644531 76.074219 C 243.339844 70.363281 250.621094 67.503906 258.535156 67.503906 C 266.445312 67.503906 273.726562 70.679688 279.425781 76.074219 C 285.121094 81.789062 287.972656 89.09375 287.972656 97.027344 C 287.972656 106.871094 262.964844 147.824219 261.699219 150.046875 C 261.066406 151.316406 259.800781 151.949219 258.535156 151.949219 Z M 258.535156 75.125 C 252.519531 75.125 247.136719 77.34375 243.023438 81.472656 C 238.910156 85.601562 236.691406 91.3125 236.691406 97.027344 C 236.691406 105.601562 257.902344 139.886719 258.535156 140.839844 C 259.167969 139.886719 280.375 105.601562 280.375 97.027344 C 280.375 90.996094 278.160156 85.601562 274.042969 81.472656 C 269.929688 77.34375 264.546875 75.125 258.535156 75.125 Z M 258.535156 112.585938 C 254.417969 112.585938 250.621094 110.996094 247.773438 108.140625 C 244.921875 105.28125 243.339844 101.472656 243.339844 97.347656 C 243.339844 93.21875 244.921875 89.410156 247.773438 86.550781 C 250.621094 83.695312 254.417969 82.109375 258.535156 82.109375 C 262.648438 82.109375 266.445312 83.695312 269.296875 86.550781 C 272.144531 89.410156 273.726562 93.21875 273.726562 97.347656 C 273.726562 101.472656 272.144531 105.28125 269.296875 108.140625 C 266.445312 110.996094 262.648438 112.585938 258.535156 112.585938 Z M 258.535156 89.410156 C 256.316406 89.410156 254.417969 90.363281 253.152344 91.632812 C 251.570312 93.21875 250.9375 95.125 250.9375 97.027344 C 250.9375 99.25 251.886719 101.15625 253.152344 102.425781 C 256 105.28125 261.066406 105.28125 264.230469 102.425781 C 265.8125 100.839844 266.445312 98.933594 266.445312 97.027344 C 266.445312 94.804688 265.496094 92.902344 264.230469 91.632812 C 262.648438 90.042969 260.75 89.410156 258.535156 89.410156 Z M 258.535156 89.410156 "/>
</g>
<path style=" stroke:none;fill-rule:nonzero;fill:rgb(0%,29.019165%,67.83905%);fill-opacity:1;" d="M 241.042969 152.882812 L 247.351562 150.78125 L 249.746094 158.007812 L 243.441406 160.113281 Z M 241.042969 152.882812 "/>
<path style=" stroke:none;fill-rule:nonzero;fill:rgb(0%,29.019165%,67.83905%);fill-opacity:1;" d="M 237.007812 165.285156 L 230.996094 163.0625 C 229.414062 162.425781 228.464844 161.15625 228.464844 159.570312 C 228.464844 157.980469 229.414062 156.394531 230.996094 156.078125 L 237.007812 154.171875 L 238.277344 157.980469 L 238.910156 159.886719 L 238.277344 161.792969 Z M 237.007812 165.285156 "/>
<path style=" stroke:none;fill-rule:nonzero;fill:rgb(0%,29.019165%,67.83905%);fill-opacity:1;" d="M 271.511719 177.664062 L 260.75 173.855469 L 263.28125 166.554688 L 274.042969 170.363281 Z M 254.101562 171.632812 L 243.339844 167.824219 L 245.871094 160.523438 L 256.632812 164.332031 Z M 254.101562 171.632812 "/>
<path style=" stroke:none;fill-rule:nonzero;fill:rgb(0%,29.019165%,67.83905%);fill-opacity:1;" d="M 280.375 184.015625 L 277.84375 179.886719 L 277.84375 176.710938 L 280.375 172.902344 L 286.386719 175.125 C 287.972656 175.761719 288.921875 177.03125 288.921875 178.933594 C 288.921875 180.523438 287.65625 182.109375 286.070312 182.425781 Z M 280.375 184.015625 "/>
<path style=" stroke:none;fill-rule:nonzero;fill:rgb(0%,29.019165%,67.83905%);fill-opacity:1;" d="M 253.355469 183.9375 L 268.828125 179.320312 L 270.996094 186.625 L 255.523438 191.242188 Z M 253.355469 183.9375 "/>
<path style=" stroke:none;fill-rule:nonzero;fill:rgb(0%,29.019165%,67.83905%);fill-opacity:1;" d="M 242.390625 198.933594 L 237.007812 195.441406 C 235.742188 194.492188 235.109375 193.21875 235.425781 191.632812 C 235.742188 190.046875 236.691406 189.09375 237.960938 188.457031 L 243.972656 186.554688 L 246.503906 192.269531 L 246.503906 194.171875 Z M 242.390625 198.933594 "/>
<path style=" stroke:none;fill-rule:nonzero;fill:rgb(0%,29.019165%,67.83905%);fill-opacity:1;" d="M 287.339844 229.09375 L 277.84375 222.746094 L 281.957031 216.394531 L 291.453125 222.746094 Z M 272.460938 218.933594 L 262.964844 212.585938 L 267.082031 206.238281 L 276.574219 212.585938 Z M 257.585938 208.777344 L 248.089844 202.425781 L 252.203125 196.078125 L 261.699219 202.425781 Z M 257.585938 208.777344 "/>
<path style=" stroke:none;fill-rule:nonzero;fill:rgb(0%,29.019165%,67.83905%);fill-opacity:1;" d="M 294.617188 237.347656 L 293.351562 232.585938 L 294.300781 229.730469 L 297.785156 226.238281 L 303.164062 229.730469 C 304.429688 230.683594 305.0625 232.269531 304.746094 233.855469 C 304.429688 235.445312 303.164062 236.714844 301.265625 236.714844 Z M 294.617188 237.347656 "/>
<path style=" stroke:none;fill-rule:nonzero;fill:rgb(0%,29.019165%,67.83905%);fill-opacity:1;" d="M 175.285156 251 L 169.589844 248.460938 C 168.003906 247.824219 167.054688 246.238281 167.371094 244.332031 C 167.6875 242.746094 168.957031 241.15625 170.855469 241.15625 L 177.183594 240.523438 Z M 175.285156 251 "/>
<path style=" stroke:none;fill-rule:nonzero;fill:rgb(0%,29.019165%,67.83905%);fill-opacity:1;" d="M 206.9375 237.984375 L 207.570312 245.601562 L 221.183594 244.332031 L 220.550781 236.714844 Z M 206.9375 237.984375 "/>
<path style=" stroke:none;fill-rule:nonzero;fill:rgb(0%,29.019165%,67.83905%);fill-opacity:1;" d="M 198.710938 238.617188 L 185.097656 239.886719 L 181.933594 254.175781 L 193.011719 258.9375 L 196.175781 251.953125 L 185.730469 247.507812 L 199.34375 246.238281 Z M 198.710938 238.617188 "/>
<path style=" stroke:none;fill-rule:nonzero;fill:rgb(0%,29.019165%,67.83905%);fill-opacity:1;" d="M 250.304688 233.855469 L 250.9375 241.476562 L 264.546875 240.207031 L 263.914062 232.585938 Z M 250.304688 233.855469 "/>
<path style=" stroke:none;fill-rule:nonzero;fill:rgb(0%,29.019165%,67.83905%);fill-opacity:1;" d="M 228.78125 235.761719 L 229.414062 243.378906 L 243.023438 242.109375 L 242.390625 234.492188 Z M 228.78125 235.761719 "/>
<path style=" stroke:none;fill-rule:nonzero;fill:rgb(0%,29.019165%,67.83905%);fill-opacity:1;" d="M 285.753906 230.683594 L 272.144531 231.953125 L 272.777344 239.570312 L 286.386719 238.300781 Z M 285.753906 230.683594 "/>
<path style=" stroke:none;fill-rule:nonzero;fill:rgb(0%,29.019165%,67.83905%);fill-opacity:1;" d="M 199.660156 261.792969 L 210.738281 266.554688 L 213.902344 259.570312 L 202.824219 254.808594 Z M 199.660156 261.792969 "/>
<path style=" stroke:none;fill-rule:nonzero;fill:rgb(0%,29.019165%,67.83905%);fill-opacity:1;" d="M 219.917969 274.175781 L 217.699219 269.414062 L 217.699219 266.871094 L 220.550781 262.429688 L 226.246094 264.96875 C 227.832031 265.601562 228.464844 267.191406 228.464844 268.777344 C 228.464844 270.363281 227.511719 271.632812 225.929688 272.269531 Z M 219.917969 274.175781 "/>
<path style=" stroke:none;fill-rule:nonzero;fill:rgb(0%,29.019165%,67.83905%);fill-opacity:1;" d="M 123.375 306.554688 L 120.84375 299.253906 L 132.871094 295.128906 L 135.402344 302.429688 Z M 142.683594 299.890625 L 140.152344 292.585938 L 152.179688 288.460938 L 154.710938 295.761719 Z M 161.992188 293.539062 L 159.460938 286.238281 L 171.488281 282.109375 L 174.019531 289.414062 Z M 181.300781 287.191406 L 178.769531 279.890625 L 190.796875 275.761719 L 193.328125 283.0625 Z M 200.609375 280.523438 L 198.074219 273.222656 L 210.105469 269.09375 L 212.636719 276.398438 Z M 200.609375 280.523438 "/>
<path style=" stroke:none;fill-rule:nonzero;fill:rgb(0%,29.019165%,67.83905%);fill-opacity:1;" d="M 206.304688 172.269531 L 199.34375 172.269531 L 199.34375 164.964844 L 191.746094 164.964844 L 191.746094 172.269531 L 184.464844 172.269531 L 184.464844 179.886719 L 191.746094 179.886719 L 191.746094 186.871094 L 199.34375 186.871094 L 199.34375 179.886719 L 206.304688 179.886719 Z M 206.304688 172.269531 "/>
<path style=" stroke:none;fill-rule:nonzero;fill:rgb(0%,29.019165%,67.83905%);fill-opacity:1;" d="M 270.878906 261.476562 L 263.914062 261.476562 L 263.914062 254.492188 L 256.316406 254.492188 L 256.316406 261.476562 L 249.039062 261.476562 L 249.039062 269.09375 L 256.316406 269.09375 L 256.316406 276.398438 L 263.914062 276.398438 L 263.914062 269.09375 L 270.878906 269.09375 Z M 270.878906 261.476562 "/>
</g>
</svg>
