<svg width="375" height="204" fill="none" xmlns="http://www.w3.org/2000/svg"><path fill="#fff" d="M0 0h375v204H0z"/><path d="M202.522 178.871c15.982 0 28.938-.938 28.938-2.095 0-1.157-12.956-2.095-28.938-2.095s-28.938.938-28.938 2.095c0 1.157 12.956 2.095 28.938 2.095z" fill="#F6F2F4"/><path d="M216.074 123.433l-1.841-.076.526-12.764a1.593 1.593 0 00-.415-1.167 1.618 1.618 0 00-1.139-.527l-8.532-.306c-.901-.023-1.672.673-1.709 1.562l-.531 12.788-1.841-.076.531-12.788c.078-1.894 1.699-3.394 3.612-3.328l8.541.307a3.452 3.452 0 013.324 3.618l-.526 12.757z" fill="#004753"/><path d="M227.298 163.354c-.192 4.388-3.93 7.814-8.323 7.671l-25.89-.961a7.866 7.866 0 01-7.591-8.235l1.927-40.242c.202-4.389 3.923-7.816 8.318-7.65l25.902.939a7.888 7.888 0 017.587 8.23l-1.93 40.248zM195.724 177.193a3.403 3.403 0 01-3.391-3.558 3.41 3.41 0 013.551-3.226 3.402 3.402 0 013.231 3.552v.003a3.403 3.403 0 01-3.391 3.229zm.001-3.966a.578.578 0 00-.573.546.573.573 0 10.599-.546h-.026zM220.098 178.377a3.37 3.37 0 01-2.515-1.114 3.374 3.374 0 01-.876-2.446 3.4 3.4 0 013.55-3.224 3.381 3.381 0 012.353 1.109c.611.672.922 1.54.877 2.446a3.4 3.4 0 01-3.389 3.229zm-.003-3.966a.57.57 0 00-.026 1.143.571.571 0 00.599-.545v-.002a.574.574 0 00-.547-.596h-.026z" fill="#004753"/><path d="M229.423 120.9l-41.787.368.012 1.411 41.787-.368-.012-1.411z" fill="#fff"/><path d="M202.678 107.498l-.098 2.112 12.612.584.098-2.113-12.612-.583z" fill="#004753"/><path d="M185.495 161.665a7.864 7.864 0 007.591 8.234l25.889.961c4.394.143 8.131-3.283 8.323-7.672l.113-4.62-41.482-5.501-.434 8.598z" fill="#1D4555"/><path d="M132.944 178.871c20.526 0 37.165-.938 37.165-2.095 0-1.157-16.639-2.095-37.165-2.095s-37.165.938-37.165 2.095c0 1.157 16.639 2.095 37.165 2.095z" fill="#F6F2F4"/><path d="M153.329 152.418c-2.237-1.801-3.173-2.813-3.173-2.813l-.062.068c-.866-1.015-2.151-1.501-3.41-1.325a3.729 3.729 0 00-1.681.654c-.044.031-.073.074-.115.106a3.562 3.562 0 01-.026-.019l-.206.233a3.71 3.71 0 00-.571.647l-.503.571c-.219.238-.456.505-.702.793-2.774 3.14-16.221 17.946-16.407 18.33l4.525 2.651c7.297-6.383 9.593-6.022 15.138-11.612.466-.47 1.025-1.266 1.578-2.141 1.424 1.84 3.06 4.17 4.125 6.376 3.973 8.23 5.781 8.039 9.135 10.961.175-.515 5.758-7.279 6.556-7.933 0-.001-7.843-10.432-14.201-15.547z" fill="#17384D"/><path d="M107.807 170.831c.388-.178 20.177-3.081 24.313-3.745.373-.066.726-.122 1.046-.167 1.194-.194 1.91-.308 1.91-.308s1.77 6.873.714 7.358c-1.066.49-7.485 1.87-9.371 2.062-7.833.799-8.724 1.279-16.799-.279l-1.813-4.921z" fill="#054752"/><path d="M131.164 170.164a3.799 3.799 0 011.454-2.731 3.769 3.769 0 014.336-.237 3.814 3.814 0 011.817 3.515 3.835 3.835 0 01-1.728 2.925 3.733 3.733 0 01-2.312.607 3.763 3.763 0 01-2.087-.781 3.78 3.78 0 01-1.48-3.298z" fill="#054752"/><path d="M167.266 175.277c-4.367.839-10.288 1.305-19.216-.641-5.02-1.095-11.923-.566-11.923-.566l-.68-4.957-.123-.614-.8-1.851s1.792-.251 4.59-.903c7.947-1.852 25.21-1.593 25.21-1.593.017.752 6.51 5.698 7.382 8.705.322 1.114-3.847 2.184-4.44 2.42zM105.869 170.838c.692.331.702.905-.21 1.341-.73.354-.669.845-.519 1.273.639 1.85 1.556 1.664 1.556 1.664s-2.561 2.27-3.514.989c-.412-.556-1.545-2.344-2.522-4.084-1.105-1.962-2.325-3.694-1.292-4.334.463-.292 1.987 1.164 3.798 2.024.788.374 2.18.876 2.703 1.127z" fill="#054752"/><path d="M105.295 170.542l-.359 1.375M104.386 170.156l-.36 1.288M103.477 169.772l-.362 1.199M102.568 169.388l-.363 1.111" stroke="#fff" stroke-width=".533" stroke-miterlimit="10" stroke-linecap="round"/><path d="M183.855 144.904c.107.342.096 2.231-2.076 3.175-1.322.575-2.993 1.01-3.069.818-.086-.219-.256-.403-.335-.659l-1.518-3.919-.085-.222-.47-6.216 5.885.882c.001-.002.494 2.305 1.668 6.141z" fill="#E2B4AA"/><path opacity=".35" d="M178.786 149.089a2.025 2.025 0 01-.334-.659l-1.519-3.919 2.735-1.513c-.001 0 1.623 5.084-.882 6.091z" fill="#8C405F"/><path d="M172.624 140.415c-.008.063.044.312.272 1.109.459 1.618.484 2.739 1.083 2.983l1.017.396c3.086-.072 5.235-1.507 5.235-1.507l2.895-.399c-2.091-4.377-1.582-4.377-4.273-8.993-1.371-2.352-3.443-2.899-4.915-2.302-2.88 1.169-2.741 4.001-2.741 4.001l.062 4.396 1.365.316z" fill="#E2B4AA"/><path d="M172.818 141.205c.056.198.12.444.128.473.334-.061 1.63-.555 1.602-.811-.002-.021-1.176.219-1.73.338z" fill="#fff"/><path d="M172.824 137.74s.838.634 1.452.009c.07-.071.071-.274.068-.331 0-.005-.323.259-.76.3-.412.04-.669-.255-.76.022zM176.644 133.522s3.414 6.776 4.952 6.725c1.539-.051 1.146-1.639 1.146-1.639s-1.808-4.553-2.399-5.909c-.845-1.941-2.477-2.653-5.787-2.233-3.505.444-5.611.87-5.193 2.762.272 1.233 2.04 2.389 7.281.294z" fill="#004754"/><path opacity=".35" d="M171.197 137.194l8.13-6.267 1.246 2.314-2.254 2.057c-3.249 2.28-3.895 4.138-5.695 5.117l-1.364-.315-.063-2.906z" fill="#8C405F"/><path d="M166.788 159.022c-.918.396-4.129.135-4.478.316-.728.38-2.263 1.392-2.785 3.433-.137.535.933 2.215 1.345 2.389.411.174 2.424-.62 2.865-1.07.441-.45.442-.876.22-1.209-.222-.332-.506-1.125-.316-1.203.19-.078 1.06.128 1.503.096.443-.032 1.281-.741 1.456-1.25.19-.552.19-1.502.19-1.502z" fill="#E2B4AA"/><path d="M185.695 147.376c-1.519-.38-8.651-.43-9.16.142-.509.572-7.737 6.838-9.066 8.45-1.329 1.612-2.278 3.226-2.99 4.555-.712 1.329-2.183 3.038-2.658 3.228-.475.19-.472 2.208-.352 2.596.352 1.139 1.166 2.549 2.073 3.315 1.415 1.195 3.123 2.125 4.493 3.575l1.519 1.821c2.354-1.238 8.548-9.218 9.544-10.12.996-.902 6.526-8.704 7.072-10.775.902-3.417-.475-6.787-.475-6.787z" fill="#2ED1FF"/><path opacity=".41" d="M165.694 165.187l11.29 2.2-2.756 3.178-4.484.332c-4.023 0-6.467-2.913-8.924-3.133-3.909-.35-7.61 2.748-7.402 2.428a171.876 171.876 0 002.371-3.805l9.905-1.2z" fill="#054752"/><path d="M183.797 143.911c-.237 0-.617.475-2.136.712-1.519.237-4.272.38-4.272.38l-.807 3.038s2.998-.991 4.747-.951c1.749.039 3.228.382 3.228.382s-.026-.361 0-.902c.029-.593-.459-.933-.554-1.456-.095-.523-.206-1.203-.206-1.203z" fill="#fff"/><path d="M183.682 152.332c-.936-1.073-3.274-1.946-4.461-.665-1.187 1.282-3.228 4.322-3.798 5.65-.57 1.328-2.342 4.721-2.532 5.433-.19.712-2.299 2.108-2.299 2.108l6.391 2.526s3.017-1.884 5.464-4.896c2.319-3.796 3.514-7.545 1.235-10.156z" fill="#1D97B8"/><path d="M174.826 164.131c-1.234-.047-3.085-.57-6.218-.38-3.133.19-6.788 0-6.788 0l-.759 2.231s1.709.717 3.18 1.403 4.889 1.54 6.693 1.587c1.804.047 4.841-.011 5.648-1.097.807-1.086-1.756-3.744-1.756-3.744z" fill="#E2B4AA"/><path d="M161.44 163.71s-2.728-.135-3.987.358c-1.899.744-3.104 2.49-3.547 3.692-.443 1.202-.74 2.139-.487 2.431.206.237.742-.326.997-.854.131-.272.475-1.772 1.944-2.475.692-.331.873-.34 2.407-.515 1.535-.175 2.769-.475 2.769-.475l.285-2.12-.381-.042z" fill="#E2B4AA"/><path d="M185.031 150.983c-.936-1.073-3.274-1.946-4.461-.665-1.187 1.281-3.228 4.322-3.798 5.65-.57 1.328-1.471 4.223-1.661 4.935-.19.712-.665 2.611-.665 2.611l2.538 3.871s4.877-3.072 6.813-6.244c2.317-3.797 3.512-7.547 1.234-10.158z" fill="#2ED1FF"/><path d="M174.256 162.169c-.233.169-.127.854-.316 1.108-.19.253-.633.222-.886.633-.253.411-.253 1.392.316 1.551.569.159 1.361.348 1.867 1.139s.728 1.582 1.202 1.835c.475.253 1.266-.221 1.645-.316.38-.095 1.103.287 1.392.032.538-.475-.316-2.373-1.614-3.576-1.296-1.203-3.036-2.817-3.606-2.406z" fill="#fff"/><path d="M162.952 127l.09 1.023-3.806.337-.083-.939 2.012-2.609-2.103.186-.09-1.023 3.523-.312.082.927-2.03 2.624 2.405-.214zM158.395 125.428l-.542 1.375-5.118-2.019.497-1.259 4.272-2.068-2.826-1.114.543-1.375 4.736 1.869-.493 1.247-4.303 2.069 3.234 1.275zM153.549 120.342l.076 1.915-7.125.283-.07-1.754 3.986-4.686-3.935.157-.076-1.915 6.594-.262.069 1.737-4.021 4.704 4.502-.179z" fill="#054752"/><path d="M174.631 127.296c-1.517-1.075-3.351-.84-3.351 1.503-1.448-1.151-3.856-.562-3.086 2.64.52 2.154 2.131 5.07 2.392 6.728l9.183-6.731c-1.117-.995-3.826-3.21-5.138-4.14z" fill="#004753"/><path d="M182.892 128.524a1.172 1.172 0 01-.233 1.64l-13.114 9.849a1.172 1.172 0 01-1.407-1.873l13.114-9.849a1.172 1.172 0 011.64.233z" fill="#004753"/><path d="M134.067 77.083c.155 1.841 22.779 1.042 22.779 1.042s-1.553-6.253-7.351-4.933c0 0-7.921-5.732-11.027.834 0-.034-4.763-.729-4.401 3.057zM200.704 48.2c.263 4.654 38.634 2.634 38.634 2.634s-2.634-15.805-12.468-12.468c0 0-13.434-14.488-18.703 2.107 0-.088-8.078-1.844-7.463 7.727z" fill="#F5F7F9"/><path fill-rule="evenodd" clip-rule="evenodd" d="M112.347 126.682h-1.088a2.888 2.888 0 00-2.887 2.886v12.889h-3.912v-6.635a2.156 2.156 0 10-4.312 0v11.038h4.312v-.001h3.912v18.876h6.861V153.07h8.445v-11.038a2.156 2.156 0 10-4.312 0v6.636h-4.133v-19.1a2.886 2.886 0 00-2.886-2.886zm-8.967 39.929h16.973a.44.44 0 00.438-.438.44.44 0 00-.438-.438H103.38a.44.44 0 00-.438.438.44.44 0 00.438.438z" fill="#E7ECF1"/><path fill-rule="evenodd" clip-rule="evenodd" d="M236.782 141.66h.578c.846 0 1.533.686 1.534 1.533v6.847h2.078v-3.526a1.145 1.145 0 112.291 0v5.864h-4.369v10.028h2.652c.128 0 .233.105.233.233a.234.234 0 01-.233.233h-9.017a.233.233 0 010-.466h2.72v-6.728h-4.487v-2.338h.001v-3.526a1.145 1.145 0 112.291 0v3.526h2.195v-10.147c0-.847.686-1.533 1.533-1.533z" fill="#F5F7F9"/></svg>