<svg xmlns="http://www.w3.org/2000/svg" viewBox="0 0 1636.94 197.01"><defs><style>.cls-1{font-size:48px;}.cls-1,.cls-6{font-family:CocogoosePro-Thin, Cocogoose Pro;font-weight:200;}.cls-2{letter-spacing:-0.03em;}.cls-3{letter-spacing:-0.01em;}.cls-4{fill:none;}.cls-4,.cls-5{stroke:#000;stroke-miterlimit:10;stroke-width:3px;}.cls-6{font-size:21px;}.cls-7{letter-spacing:0.01em;}.cls-8{letter-spacing:-0.06em;}.cls-9{letter-spacing:-0.05em;}.cls-10{letter-spacing:-0.03em;}.cls-11{letter-spacing:-0.04em;}.cls-12{letter-spacing:-0.03em;}.cls-13{letter-spacing:-0.01em;}</style></defs><g id="Layer_2" data-name="Layer 2"><g id="Layer_1-2" data-name="Layer 1"><g id="Offer"><text class="cls-1" transform="translate(633.52 41.84)">H<tspan class="cls-2" x="36.63" y="0">o</tspan><tspan x="71.32" y="0">w </tspan><tspan class="cls-3" x="132" y="0">t</tspan><tspan x="146.42" y="0">o Offer </tspan></text><line class="cls-4" x1="94.46" y1="94.01" x2="1508.46" y2="94.01"/><circle class="cls-5" cx="95.46" cy="94.01" r="11.5"/><circle class="cls-5" cx="448.71" cy="94.01" r="11.5"/><circle class="cls-5" cx="801.96" cy="94.01" r="11.5"/><circle class="cls-5" cx="1155.21" cy="94.01" r="11.5"/><circle class="cls-5" cx="1508.46" cy="94.01" r="11.5"/><path d="M11.84,133.25a.25.25,0,0,1,.09-.2l0,0a.42.42,0,0,1,.16,0c.11,0,.21.07.33.21a5.48,5.48,0,0,0,2.05,1.6,7.15,7.15,0,0,0,2.94.54,8.32,8.32,0,0,0,2.64-.39,3.88,3.88,0,0,0,1.86-1.27,3.44,3.44,0,0,0,.69-2.22,2.34,2.34,0,0,0-.8-1.87,5.11,5.11,0,0,0-1.81-1c-.67-.2-1.52-.4-2.56-.61a13.53,13.53,0,0,1-3-.83,4.37,4.37,0,0,1-1.73-1.26,3,3,0,0,1-.58-1.86,3.64,3.64,0,0,1,.67-2.21,4.17,4.17,0,0,1,1.92-1.39,8.07,8.07,0,0,1,2.93-.48,7.51,7.51,0,0,1,2.6.41,6.18,6.18,0,0,1,2.11,1.38.32.32,0,0,1,.09.24.33.33,0,0,1-.06.19l0,0a.41.41,0,0,1-.19,0,.34.34,0,0,1-.17,0l-.21-.17a8.4,8.4,0,0,0-1.19-.86,4.14,4.14,0,0,0-1.24-.46,8.33,8.33,0,0,0-1.72-.14,8.37,8.37,0,0,0-2.39.33A4.11,4.11,0,0,0,13.49,122a2.89,2.89,0,0,0-.71,2,2.44,2.44,0,0,0,1.31,2.21,10.91,10.91,0,0,0,3.5,1.18,27.64,27.64,0,0,1,2.86.71,5,5,0,0,1,1.94,1.16,2.85,2.85,0,0,1,.84,2.17,4.05,4.05,0,0,1-.76,2.49,4.46,4.46,0,0,1-2.07,1.5,8.33,8.33,0,0,1-3,.49,7.86,7.86,0,0,1-3.07-.55A6.29,6.29,0,0,1,12,133.55.51.51,0,0,1,11.84,133.25Z" transform="translate(-11.84)"/><path d="M26.13,129.14a6.13,6.13,0,0,0,.85,3.13,6.42,6.42,0,0,0,2.29,2.31,6,6,0,0,0,3.14.86,6.36,6.36,0,0,0,1.84-.24,5.53,5.53,0,0,0,1.33-.57,12.12,12.12,0,0,0,1.15-.82.45.45,0,0,1,.27-.1.2.2,0,0,1,.16.07l0,0a.2.2,0,0,1,.07.16.39.39,0,0,1-.13.28,8,8,0,0,1-2.12,1.3,7,7,0,0,1-6-.45,7,7,0,0,1-2.51-2.51,6.65,6.65,0,0,1-.93-3.44,6.78,6.78,0,0,1,.93-3.46A7.05,7.05,0,0,1,29,123.13a6.76,6.76,0,0,1,6.93,0,7.44,7.44,0,0,1,2.52,2.5,5.89,5.89,0,0,1,.92,3.05v0c0,.2-.11.29-.31.29H26.13Zm3.33-5.59a6.44,6.44,0,0,0-2.24,2.07,6.18,6.18,0,0,0-1,2.84H38.73a5.46,5.46,0,0,0-.92-2.61,7,7,0,0,0-2.27-2.19,6.08,6.08,0,0,0-6.08-.11Z" transform="translate(-11.84)"/><path d="M46,123.51a.24.24,0,0,1,.27.27h0a.24.24,0,0,1-.07.18.25.25,0,0,1-.2.09H43.48v9.4a2,2,0,0,0,.36,1.18,1.29,1.29,0,0,0,1.15.51h.43c.27,0,.4.08.4.25v0a.45.45,0,0,1-.06.19c0,.08-.13.12-.28.12a5.77,5.77,0,0,1-.89,0,1.85,1.85,0,0,1-1.27-.73,2.39,2.39,0,0,1-.44-1.44v-9.45H41.1c-.21,0-.31-.1-.31-.28s.1-.27.31-.27h1.78V120c0-.23.09-.34.28-.34h0c.2,0,.3.11.3.34v3.53Z" transform="translate(-11.84)"/><path d="M55.67,122.32h0c.19,0,.28.11.28.34v2.78a4.13,4.13,0,0,1,1.2-1.64,5.67,5.67,0,0,1,1.78-1,6,6,0,0,1,1.85-.32,4.74,4.74,0,0,1,1.6.3,6.15,6.15,0,0,1,1.43.71c.39.27.58.49.58.66a.2.2,0,0,1,0,.14h0a.31.31,0,0,1-.24.12.37.37,0,0,1-.23-.1,4.72,4.72,0,0,0-3.05-1.24,5.21,5.21,0,0,0-2.24.53,4.56,4.56,0,0,0-1.87,1.71,5.44,5.44,0,0,0-.75,3v7.07c0,.23-.1.35-.29.35h0c-.2,0-.3-.12-.3-.35V122.66C55.37,122.43,55.47,122.32,55.67,122.32Z" transform="translate(-11.84)"/><path d="M66.92,118.63h.54c.13,0,.2.08.2.24v.48c0,.16-.07.24-.2.24h-.53a.26.26,0,0,1-.18,0,.31.31,0,0,1,0-.19v-.5A.19.19,0,0,1,66.92,118.63Zm.28,3.69h0c.2,0,.3.11.3.34v12.72c0,.23-.1.35-.3.35h0a.31.31,0,0,1-.23-.1.39.39,0,0,1-.07-.25V122.66C66.9,122.43,67,122.32,67.2,122.32Z" transform="translate(-11.84)"/><path d="M84.75,135.63a.29.29,0,0,1-.23.1h0c-.19,0-.29-.12-.29-.35v-3.52A6.93,6.93,0,0,1,82.74,134a7.06,7.06,0,0,1-2.17,1.47,6.25,6.25,0,0,1-2.51.53,7.05,7.05,0,0,1-3.58-.93,7,7,0,0,1-2.54-2.51,6.87,6.87,0,0,1,0-6.92,6.9,6.9,0,0,1,2.53-2.53,6.74,6.74,0,0,1,3.49-.94,6.56,6.56,0,0,1,2.6.52,6.87,6.87,0,0,1,2.18,1.47,6.94,6.94,0,0,1,1.47,2.17v-7.59c0-.23.1-.35.29-.35h0a.29.29,0,0,1,.23.09.42.42,0,0,1,.07.26v16.62A.39.39,0,0,1,84.75,135.63ZM83.38,126a6.31,6.31,0,0,0-2.28-2.31,6.21,6.21,0,0,0-6.29,0A6.53,6.53,0,0,0,72.48,126a6.07,6.07,0,0,0-.87,3.17,6.15,6.15,0,0,0,.85,3.15,6.32,6.32,0,0,0,2.33,2.29,6.42,6.42,0,0,0,3.26.85,5.83,5.83,0,0,0,3-.85,6.47,6.47,0,0,0,2.28-2.31,6,6,0,0,0,.86-3.13A6.3,6.3,0,0,0,83.38,126Z" transform="translate(-11.84)"/><path d="M87.76,129.14a6.12,6.12,0,0,0,.84,3.13,6.42,6.42,0,0,0,2.29,2.31,6,6,0,0,0,3.14.86,6.36,6.36,0,0,0,1.84-.24,5.53,5.53,0,0,0,1.33-.57,12.12,12.12,0,0,0,1.15-.82.45.45,0,0,1,.27-.1.2.2,0,0,1,.16.07l0,0a.2.2,0,0,1,.07.16.39.39,0,0,1-.13.28,7.86,7.86,0,0,1-2.12,1.3,7,7,0,0,1-6-.45,7,7,0,0,1-2.51-2.51,6.65,6.65,0,0,1-.93-3.44,6.78,6.78,0,0,1,.93-3.46,7.05,7.05,0,0,1,2.51-2.55,6.76,6.76,0,0,1,6.93,0,7.44,7.44,0,0,1,2.52,2.5,5.89,5.89,0,0,1,.92,3.05v0c0,.2-.1.29-.31.29H87.76Zm3.32-5.59a6.44,6.44,0,0,0-2.24,2.07,6.18,6.18,0,0,0-1,2.84h12.57a5.59,5.59,0,0,0-.93-2.61,7,7,0,0,0-2.27-2.19,6.08,6.08,0,0,0-6.08-.11Z" transform="translate(-11.84)"/><path d="M110.52,118.63h.53q.21,0,.21.24v.48q0,.24-.21.24h-.52a.19.19,0,0,1-.23-.24v-.5A.19.19,0,0,1,110.52,118.63Zm.28,3.69h0c.2,0,.3.11.3.34v12.72c0,.23-.1.35-.3.35h0a.29.29,0,0,1-.23-.1.39.39,0,0,1-.08-.25V122.66C110.49,122.43,110.6,122.32,110.8,122.32Z" transform="translate(-11.84)"/><path d="M115.54,135.73h0c-.19,0-.29-.12-.29-.34V122.67c0-.24.1-.35.29-.35h0c.19,0,.28.11.28.35l0,2.5a5.45,5.45,0,0,1,1.31-1.63,6,6,0,0,1,1.76-1.05,5.18,5.18,0,0,1,1.84-.36,5.38,5.38,0,0,1,3,.81,5.46,5.46,0,0,1,1.94,2.11,5.76,5.76,0,0,1,.68,2.74v7.6c0,.22-.09.34-.28.34h0c-.21,0-.31-.12-.31-.34v-7.6a5.24,5.24,0,0,0-2.37-4.32,4.76,4.76,0,0,0-2.63-.74,4.81,4.81,0,0,0-2.19.59,5.41,5.41,0,0,0-1.92,1.71,4.42,4.42,0,0,0-.78,2.61v7.75C115.84,135.61,115.74,135.73,115.54,135.73Z" transform="translate(-11.84)"/><path d="M128.34,124.23c-.2,0-.3-.09-.3-.28h0a.22.22,0,0,1,.08-.2.36.36,0,0,1,.22-.06h2.44V122a4.87,4.87,0,0,1,.5-2.29,3.37,3.37,0,0,1,1.39-1.43,4.38,4.38,0,0,1,2.09-.48.31.31,0,0,1,.29.12.41.41,0,0,1,.06.2v0a.27.27,0,0,1-.07.17c0,.07-.16.1-.32.1a3.41,3.41,0,0,0-1.83.46,2.82,2.82,0,0,0-1.13,1.26,4.4,4.4,0,0,0-.38,1.87v1.66h3c.21,0,.31.09.31.26h0c0,.19-.1.28-.31.28h-3v11.15c0,.23-.09.35-.29.35h0c-.2,0-.3-.12-.3-.35V124.23Z" transform="translate(-11.84)"/><path d="M136.92,125.61a6.79,6.79,0,0,1,2.48-2.51,6.59,6.59,0,0,1,3.43-.93,6.88,6.88,0,0,1,3.49.93,7,7,0,0,1,2.56,2.51,6.55,6.55,0,0,1,1,3.45,6.65,6.65,0,0,1-1,3.47,7.13,7.13,0,0,1-2.55,2.54,6.7,6.7,0,0,1-3.48,1,6.45,6.45,0,0,1-3.43-1,7,7,0,0,1-3.41-6A6.9,6.9,0,0,1,136.92,125.61Zm.53,6.62a6.42,6.42,0,0,0,2.27,2.33,6,6,0,0,0,3.13.86,6.27,6.27,0,0,0,3.23-.86,6.37,6.37,0,0,0,2.31-2.33,6.24,6.24,0,0,0,.84-3.17,6,6,0,0,0-.87-3.15,6.42,6.42,0,0,0-2.34-2.29,6.31,6.31,0,0,0-3.19-.84,6,6,0,0,0-3.13.84,6.36,6.36,0,0,0-2.25,8.61Z" transform="translate(-11.84)"/><path d="M152.69,122.32h0c.19,0,.29.11.29.34v2.78a4.13,4.13,0,0,1,1.2-1.64,5.74,5.74,0,0,1,1.77-1,6,6,0,0,1,1.86-.32,4.79,4.79,0,0,1,1.6.3,6.07,6.07,0,0,1,1.42.71c.39.27.59.49.59.66a.2.2,0,0,1,0,.14h0a.32.32,0,0,1-.25.12.39.39,0,0,1-.23-.1,4.7,4.7,0,0,0-3.05-1.24,5.21,5.21,0,0,0-2.24.53,4.6,4.6,0,0,0-1.86,1.71,5.44,5.44,0,0,0-.75,3v7.07c0,.23-.1.35-.3.35h0c-.2,0-.29-.12-.29-.35V122.66C152.4,122.43,152.49,122.32,152.69,122.32Z" transform="translate(-11.84)"/><path d="M164.09,135.73h0c-.19,0-.29-.12-.29-.34V122.67c0-.24.1-.35.29-.35h0c.19,0,.28.11.28.35v2a4.12,4.12,0,0,1,1.13-1.35,5.1,5.1,0,0,1,1.49-.79,5,5,0,0,1,1.54-.26,4.14,4.14,0,0,1,2.84.94,5.24,5.24,0,0,1,1.53,2.3,5.33,5.33,0,0,1,.91-1.63,4.28,4.28,0,0,1,1.48-1.17,4.5,4.5,0,0,1,2-.44,4.28,4.28,0,0,1,2.57.77,4.76,4.76,0,0,1,1.59,1.92,5.34,5.34,0,0,1,.53,2.28v8.12c0,.23-.09.35-.27.35h0a.33.33,0,0,1-.24-.1.39.39,0,0,1-.08-.25v-8.12a4.93,4.93,0,0,0-.43-2,4.11,4.11,0,0,0-1.36-1.69,3.73,3.73,0,0,0-2.31-.69,3.69,3.69,0,0,0-2.27.69,4.21,4.21,0,0,0-1.37,1.69,4.76,4.76,0,0,0-.45,2v8.14c0,.22-.1.34-.29.34h0c-.2,0-.3-.12-.3-.34v-8.32a4.55,4.55,0,0,0-.44-1.87,4.11,4.11,0,0,0-1.36-1.64,3.85,3.85,0,0,0-2.29-.66,4.44,4.44,0,0,0-1.79.41,3.86,3.86,0,0,0-2.34,3.75v8.33C164.39,135.61,164.29,135.73,164.09,135.73Z" transform="translate(-11.84)"/><path d="M198.88,135.73h0c-.2,0-.3-.12-.3-.37v-3.47a6.92,6.92,0,0,1-1.52,2.14,7.16,7.16,0,0,1-2.22,1.47,6.63,6.63,0,0,1-2.6.52,6.55,6.55,0,0,1-3.36-.93,7.22,7.22,0,0,1-2.56-2.53,6.41,6.41,0,0,1-1-3.43,6.52,6.52,0,0,1,1-3.45,7.19,7.19,0,0,1,2.56-2.55,6.53,6.53,0,0,1,5.95-.41,7.18,7.18,0,0,1,2.23,1.48,6.89,6.89,0,0,1,1.52,2.16v-3.69a.54.54,0,0,1,.07-.27.29.29,0,0,1,.23-.09h0c.2,0,.29.12.29.36v12.69C199.17,135.61,199.08,135.73,198.88,135.73ZM197.66,126a7,7,0,0,0-2.38-2.32,5.94,5.94,0,0,0-3.06-.86,5.87,5.87,0,0,0-3.07.86,6.61,6.61,0,0,0-2.33,2.31,6,6,0,0,0-.88,3.17,5.88,5.88,0,0,0,.88,3.13,6.66,6.66,0,0,0,2.33,2.3,6,6,0,0,0,3.07.86,6.27,6.27,0,0,0,3.16-.85,6.5,6.5,0,0,0,2.33-2.3,6.05,6.05,0,0,0,.86-3.14A5.86,5.86,0,0,0,197.66,126Z" transform="translate(-11.84)"/><path d="M202.54,129.68h6.8a.31.31,0,0,1,.21.07.32.32,0,0,1,.08.23h0a.31.31,0,0,1-.29.29h-6.8c-.22,0-.34-.1-.34-.3h0C202.2,129.78,202.32,129.68,202.54,129.68Z" transform="translate(-11.84)"/><path d="M93.64,148.71a.24.24,0,0,1,.27.27h0a.24.24,0,0,1-.07.18.25.25,0,0,1-.2.09H91.09v9.4a2,2,0,0,0,.36,1.18,1.29,1.29,0,0,0,1.15.51H93c.27,0,.4.08.4.25v0a.45.45,0,0,1-.06.19c0,.08-.13.12-.28.12a5.77,5.77,0,0,1-.89-.05,1.85,1.85,0,0,1-1.27-.73,2.39,2.39,0,0,1-.44-1.44v-9.45H88.71c-.21,0-.31-.1-.31-.28s.1-.27.31-.27h1.78v-3.53c0-.23.1-.34.28-.34h0c.2,0,.3.11.3.34v3.53Z" transform="translate(-11.84)"/><path d="M96.57,143.83h.54q.21,0,.21.24v.48q0,.24-.21.24h-.53a.28.28,0,0,1-.18,0,.31.31,0,0,1-.05-.19v-.5A.2.2,0,0,1,96.57,143.83Zm.29,3.69h0c.19,0,.29.11.29.34v12.72c0,.23-.1.35-.29.35h0a.25.25,0,0,1-.23-.1.37.37,0,0,1-.08-.25V147.86C96.55,147.63,96.65,147.52,96.86,147.52Z" transform="translate(-11.84)"/><path d="M101.37,150.81a6.76,6.76,0,0,1,2.47-2.51,6.62,6.62,0,0,1,3.43-.93,6.86,6.86,0,0,1,3.49.93,7.11,7.11,0,0,1,2.57,2.51,6.64,6.64,0,0,1,1,3.45,6.73,6.73,0,0,1-1,3.47,7.24,7.24,0,0,1-2.56,2.54,6.65,6.65,0,0,1-3.48.95,6.44,6.44,0,0,1-3.42-.95,7.08,7.08,0,0,1-2.5-2.54,6.9,6.9,0,0,1-.92-3.47A6.8,6.8,0,0,1,101.37,150.81Zm.52,6.62a6.5,6.5,0,0,0,2.27,2.33,6,6,0,0,0,3.13.86,6.33,6.33,0,0,0,3.24-.86,6.53,6.53,0,0,0,2.31-2.33,6.24,6.24,0,0,0,.84-3.17,6,6,0,0,0-.87-3.15,6.5,6.5,0,0,0-2.34-2.29,6.35,6.35,0,0,0-3.2-.84,6,6,0,0,0-3.12.84,6.11,6.11,0,0,0-2.26,2.28,6.19,6.19,0,0,0-.83,3.16A6.26,6.26,0,0,0,101.89,157.43Z" transform="translate(-11.84)"/><path d="M117.32,160.93h0c-.19,0-.29-.12-.29-.34V147.87c0-.24.1-.35.29-.35h0c.19,0,.28.11.28.35l0,2.5a5.26,5.26,0,0,1,1.3-1.63,6.13,6.13,0,0,1,1.76-1.05,5.19,5.19,0,0,1,1.85-.36,5.37,5.37,0,0,1,2.95.81,5.49,5.49,0,0,1,2,2.11,5.88,5.88,0,0,1,.68,2.74v7.6c0,.22-.1.34-.29.34h0c-.2,0-.31-.12-.31-.34V153a5.17,5.17,0,0,0-2.37-4.32,4.72,4.72,0,0,0-2.62-.74,4.81,4.81,0,0,0-2.2.59,5.41,5.41,0,0,0-1.92,1.71,4.42,4.42,0,0,0-.77,2.61v7.75C117.63,160.81,117.52,160.93,117.32,160.93Z" transform="translate(-11.84)"/><path d="M131,159.74a.21.21,0,0,1,.18-.07H132a.22.22,0,0,1,.19.07.37.37,0,0,1,.05.2v.73c0,.17-.07.26-.2.26h-.88c-.13,0-.19-.08-.19-.23v-.78A.28.28,0,0,1,131,159.74Z" transform="translate(-11.84)"/><text class="cls-6" transform="translate(320.53 135.7)">G<tspan class="cls-7" x="15.59" y="0">e</tspan><tspan x="31.58" y="0">t n</tspan><tspan class="cls-7" x="58.96" y="0">o</tspan><tspan x="74.8" y="0">tified when any </tspan><tspan class="cls-7" x="10.14" y="25.2">o</tspan><tspan x="25.98" y="25.2">ther user </tspan><tspan class="cls-8" x="139.71" y="25.2">r</tspan><tspan x="149.9" y="25.2">equests</tspan></text><text class="cls-6" transform="translate(712.52 135.71)"><tspan class="cls-9">A</tspan><tspan class="cls-10" x="13.97" y="0">cc</tspan><tspan x="39.19" y="0">e</tspan><tspan class="cls-7" x="55.07" y="0">p</tspan><tspan x="71.64" y="0">t </tspan><tspan class="cls-8" x="84.74" y="0">r</tspan><tspan x="94.92" y="0">equest.</tspan></text><text class="cls-6" transform="translate(1058.22 135.71)"><tspan class="cls-11">R</tspan><tspan x="13.22" y="0">e</tspan><tspan class="cls-10" x="29.1" y="0">c</tspan><tspan x="41.71" y="0">ei</tspan><tspan class="cls-12" x="62.3" y="0">v</tspan><tspan x="74.1" y="0">e payment</tspan><tspan x="21.76" y="25.2">af</tspan><tspan class="cls-13" x="46.07" y="25.2">t</tspan><tspan x="52.38" y="25.2">er journ</tspan><tspan class="cls-12" x="146.54" y="25.2">e</tspan><tspan x="161.88" y="25.2">y.</tspan></text><text class="cls-6" transform="translate(1474.16 135.71)">Done.</text></g></g></g></svg>