<svg xmlns="http://www.w3.org/2000/svg" viewBox="0 0 1648.78 197.01"><defs><style>.cls-1{font-size:48px;}.cls-1,.cls-8{font-family:CocogoosePro-Thin, Cocogoose Pro;font-weight:200;}.cls-2{letter-spacing:-0.03em;}.cls-3{letter-spacing:-0.01em;}.cls-4{letter-spacing:-0.04em;}.cls-5{letter-spacing:0em;}.cls-6{fill:none;}.cls-6,.cls-7{stroke:#000;stroke-miterlimit:10;stroke-width:3px;}.cls-8{font-size:21px;}.cls-9{letter-spacing:-0.01em;}.cls-10{letter-spacing:-0.06em;}.cls-11{letter-spacing:-0.1em;}.cls-12{letter-spacing:-0.03em;}.cls-13{letter-spacing:-0.03em;}.cls-14{letter-spacing:-0.03em;}.cls-15{letter-spacing:0.01em;}</style></defs><g id="Layer_2" data-name="Layer 2"><g id="Layer_1-2" data-name="Layer 1"><g id="Offer"><text class="cls-1" transform="translate(618.29 41.84)">H<tspan class="cls-2" x="36.63" y="0">o</tspan><tspan x="71.32" y="0">w </tspan><tspan class="cls-3" x="132" y="0">t</tspan><tspan x="146.42" y="0">o </tspan><tspan class="cls-4" x="197.4" y="0">R</tspan><tspan class="cls-5" x="227.62" y="0">equest </tspan></text><line class="cls-6" x1="106.3" y1="94.01" x2="1520.3" y2="94.01"/><circle class="cls-7" cx="107.3" cy="94.01" r="11.5"/><circle class="cls-7" cx="460.55" cy="94.01" r="11.5"/><circle class="cls-7" cx="813.8" cy="94.01" r="11.5"/><circle class="cls-7" cx="1167.05" cy="94.01" r="11.5"/><circle class="cls-7" cx="1520.3" cy="94.01" r="11.5"/><text class="cls-8" transform="translate(29.63 135.73)">Find ma<tspan class="cls-9" x="93.38" y="0">t</tspan><tspan x="99.69" y="0">ching </tspan><tspan x="54.96" y="25.2">ride.</tspan></text><text class="cls-8" transform="translate(377.08 135.7)">Send <tspan class="cls-10" x="66.91" y="0">r</tspan><tspan x="77.1" y="0">equest.</tspan></text><text class="cls-8" transform="translate(685.98 135.71)"><tspan class="cls-11">W</tspan><tspan x="19.52" y="0">ait </tspan><tspan class="cls-12" x="53.77" y="0">f</tspan><tspan x="61.1" y="0">or </tspan><tspan class="cls-13" x="94.78" y="0">c</tspan><tspan x="107.39" y="0">on</tspan><tspan class="cls-14" x="137.41" y="0">f</tspan><tspan x="144.73" y="0">ormation.</tspan></text><text class="cls-8" transform="translate(1049.14 135.71)">Pay af<tspan class="cls-9" x="72.66" y="0">t</tspan><tspan x="78.97" y="0">er </tspan><tspan class="cls-13" x="112.81" y="0">c</tspan><tspan x="125.42" y="0">ompl</tspan><tspan class="cls-15" x="184.22" y="0">e</tspan><tspan x="200.21" y="0">ting </tspan><tspan x="74.91" y="25.2">journ</tspan><tspan class="cls-14" x="135.23" y="25.2">e</tspan><tspan x="150.56" y="25.2">y.</tspan></text><text class="cls-8" transform="translate(1486 135.71)">Done.</text></g></g></g></svg>