<svg xmlns="http://www.w3.org/2000/svg" viewBox="0 0 1461.91 251.5"><defs><style>.cls-1,.cls-2{fill:none;}.cls-1,.cls-2,.cls-3{stroke:#000;stroke-linecap:round;stroke-linejoin:round;stroke-width:5px;}.cls-2{stroke-dasharray:10 20.01 0 0;}.cls-3{fill:#fff;}.cls-4{font-size:48px;font-family:CocogoosePro-Thin, Cocogoose Pro;font-weight:200;}</style></defs><g id="Layer_2" data-name="Layer 2"><g id="Layer_1-2" data-name="Layer 1"><path class="cls-1" d="M24,249l4.29-2.57"/><path class="cls-2" d="M45.58,236.38C135.68,185.16,271.33,126.67,436,128c197.64,1.59,285.24,88.11,481,108,114.92,11.68,289.23,2.63,515.55-113.7"/><path class="cls-1" d="M1432.56,122.29,1437,120"/><line class="cls-1" x1="23" y1="198.02" x2="23" y2="231.98"/><circle class="cls-1" cx="23" cy="177.52" r="20.5"/><line class="cls-1" x1="1438" y1="45.31" x2="1438" y2="101.5"/><circle class="cls-3" cx="1438" cy="23.91" r="21.41"/><text class="cls-4" transform="translate(308.08 120.67) rotate(-8.86)">S</text><text class="cls-4" transform="matrix(0.99, -0.11, 0.11, 0.99, 338.72, 115.86)">h</text><text class="cls-4" transform="translate(370.75 112.25) rotate(-3.44)">a</text><text class="cls-4" transform="translate(407.9 110.15) rotate(-0.82)">r</text><text class="cls-4" transform="translate(430.84 109.65) rotate(1.56)">e</text><text class="cls-4" transform="translate(466.77 110.82) rotate(3.81)"> </text><text class="cls-4" transform="translate(481.49 111.68) rotate(5.78)">y</text><text class="cls-4" transform="matrix(0.99, 0.15, -0.15, 0.99, 507.95, 114.22)">o</text><text class="cls-4" transform="translate(543.04 119.6) rotate(11.74)">u</text><text class="cls-4" transform="translate(574.48 126.21) rotate(14.18)">r</text><text class="cls-4" transform="translate(599.5 132.6) rotate(15.67)"> </text><text class="cls-4" transform="matrix(0.96, 0.28, -0.28, 0.96, 613.82, 136.64)">j</text><text class="cls-4" transform="translate(624.01 139.53) rotate(17.73)">o</text><text class="cls-4" transform="translate(658.07 150.48) rotate(18.82)">u</text><text class="cls-4" transform="translate(688.79 160.99) rotate(19.01)">r</text><text class="cls-4" transform="matrix(0.95, 0.32, -0.32, 0.95, 713.33, 169.49)">n</text><text class="cls-4" transform="translate(744.09 179.86) rotate(17.22)">e</text><text class="cls-4" transform="translate(777.34 190.15) rotate(15.48)">y</text><text class="cls-4" transform="matrix(0.97, 0.24, -0.24, 0.97, 804.7, 197.64)"> </text><text class="cls-4" transform="translate(820.05 201.79) rotate(11.7)">w</text><text class="cls-4" transform="translate(865.64 210.86) rotate(9.43)">i</text><text class="cls-4" transform="translate(876.63 212.7) rotate(8.39)">t</text><text class="cls-4" transform="translate(892.08 215.12) rotate(6.48)">h</text><text class="cls-4" transform="translate(925.08 218.71) rotate(4.62)"> </text><text class="cls-4" transform="translate(940.83 220.18) rotate(2.53)">p</text><text class="cls-4" transform="translate(979.49 221.84) rotate(-0.37)">e</text><text class="cls-4" transform="translate(1016.8 221.57) rotate(-3.14)">o</text><text class="cls-4" transform="matrix(0.99, -0.1, 0.1, 0.99, 1053.73, 219.53)">p</text><text class="cls-4" transform="translate(1091.76 215.4) rotate(-7.61)">l</text><text class="cls-4" transform="translate(1102.57 214.13) rotate(-9.23)">e</text><text class="cls-4" transform="matrix(0.98, -0.19, 0.19, 0.98, 1138.17, 208.17)">.</text></g></g></svg>